<svg width="7" height="5" viewBox="0 0 7 5" fill="none" xmlns="http://www.w3.org/2000/svg">
<path d="M0.853693 5V4.33523L2.40696 2.89702C2.53906 2.76918 2.64986 2.65412 2.73935 2.55185C2.83026 2.44957 2.89915 2.34943 2.94602 2.25142C2.9929 2.15199 3.01634 2.04474 3.01634 1.92969C3.01634 1.80185 2.98722 1.69176 2.92898 1.59943C2.87074 1.50568 2.79119 1.43395 2.69034 1.38423C2.58949 1.3331 2.47514 1.30753 2.3473 1.30753C2.21378 1.30753 2.0973 1.33452 1.99787 1.38849C1.89844 1.44247 1.82173 1.51989 1.76776 1.62074C1.71378 1.72159 1.68679 1.84162 1.68679 1.98082H0.81108C0.81108 1.69531 0.87571 1.44744 1.00497 1.23722C1.13423 1.02699 1.31534 0.864347 1.5483 0.74929C1.78125 0.634233 2.04972 0.576704 2.35369 0.576704C2.66619 0.576704 2.93821 0.632102 3.16974 0.742898C3.4027 0.852273 3.58381 1.00426 3.71307 1.19886C3.84233 1.39347 3.90696 1.61648 3.90696 1.8679C3.90696 2.03267 3.87429 2.19531 3.80895 2.35582C3.74503 2.51634 3.63068 2.6946 3.46591 2.89062C3.30114 3.08523 3.06889 3.31889 2.76918 3.59162L2.1321 4.21591V4.24574H3.96449V5H0.853693ZM6.53143 0.636364V5H5.60884V1.51207H5.58327L4.58398 2.13849V1.32031L5.66424 0.636364H6.53143Z" fill="#7C8BD4"/>
</svg>
