<svg width="29" height="29" viewBox="0 0 29 29" fill="none" xmlns="http://www.w3.org/2000/svg">
<path d="M21.0746 18L18 20.4597V19.5C18 18.6716 18.6716 18 19.5 18H21.0746ZM22 17H19.5C18.1193 17 17 18.1193 17 19.5V21H8.5C7.67157 21 7 20.3284 7 19.5V10.5C7 9.67157 7.67157 9 8.5 9H20.5C21.3284 9 22 9.67157 22 10.5V16.5V17Z" stroke="#7C8BD4"/>
<path d="M11.8537 17V16.3352L13.407 14.897C13.5391 14.7692 13.6499 14.6541 13.7393 14.5518C13.8303 14.4496 13.8991 14.3494 13.946 14.2514C13.9929 14.152 14.0163 14.0447 14.0163 13.9297C14.0163 13.8018 13.9872 13.6918 13.929 13.5994C13.8707 13.5057 13.7912 13.4339 13.6903 13.3842C13.5895 13.3331 13.4751 13.3075 13.3473 13.3075C13.2138 13.3075 13.0973 13.3345 12.9979 13.3885C12.8984 13.4425 12.8217 13.5199 12.7678 13.6207C12.7138 13.7216 12.6868 13.8416 12.6868 13.9808H11.8111C11.8111 13.6953 11.8757 13.4474 12.005 13.2372C12.1342 13.027 12.3153 12.8643 12.5483 12.7493C12.7813 12.6342 13.0497 12.5767 13.3537 12.5767C13.6662 12.5767 13.9382 12.6321 14.1697 12.7429C14.4027 12.8523 14.5838 13.0043 14.7131 13.1989C14.8423 13.3935 14.907 13.6165 14.907 13.8679C14.907 14.0327 14.8743 14.1953 14.8089 14.3558C14.745 14.5163 14.6307 14.6946 14.4659 14.8906C14.3011 15.0852 14.0689 15.3189 13.7692 15.5916L13.1321 16.2159V16.2457H14.9645V17H11.8537ZM17.5314 12.6364V17H16.6088V13.5121H16.5833L15.584 14.1385V13.3203L16.6642 12.6364H17.5314Z" fill="#7C8BD4"/>
<circle cx="14.5" cy="14.5" r="13.95" stroke="#7C8BD4" stroke-width="1.1"/>
</svg>
