<svg width="21" height="25" viewBox="0 0 21 25" fill="none" xmlns="http://www.w3.org/2000/svg">
<path d="M5.15 9.3C5.15 6.14934 7.5748 3.65 10.5 3.65C13.4252 3.65 15.85 6.14934 15.85 9.3C15.85 9.83705 15.7792 10.3555 15.6474 10.846L10.5 19.7061L5.35265 10.846C5.22081 10.3555 5.15 9.83705 5.15 9.3Z" stroke="#7C8BD4" stroke-width="1.3"/>
<circle cx="10.5" cy="9" r="2.1" stroke="#7C8BD4" stroke-width="0.8"/>
<path d="M8.7668 17.5C6.29811 17.8166 4.5 18.7918 4.5 19.9459C4.5 21.3565 7.18629 22.5 10.5 22.5C13.8137 22.5 16.5 21.3565 16.5 19.9459C16.5 18.7918 14.7019 17.8166 12.2332 17.5" stroke="#7C8BD4" stroke-width="0.8"/>
</svg>
