<svg width="10" height="12" viewBox="0 0 10 12" fill="none" xmlns="http://www.w3.org/2000/svg">
<path d="M9.4 2.26249V9.82507C9.4 9.97304 9.31831 10.1089 9.18763 10.1783L6.97558 11.3533L7.25703 11.8832L6.97557 11.3533C6.91779 11.384 6.85337 11.4 6.78794 11.4H3.08062C3.0124 11.4 2.9453 11.3825 2.88572 11.3493L0.805098 10.1884L0.512745 10.7123L0.805098 10.1884C0.678473 10.1177 0.6 9.98407 0.6 9.83907V2.23458C0.6 2.08588 0.682481 1.94946 0.814152 1.88037L1.35236 1.59798C1.62941 1.45262 1.85776 1.22922 2.00916 0.95542L2.09154 0.806436L1.56647 0.51609L2.09154 0.806436C2.16198 0.679062 2.29604 0.6 2.44159 0.6H7.42828C7.57725 0.6 7.71387 0.682784 7.78284 0.814833L8.31468 0.537081L7.78284 0.814835L7.83155 0.908114C7.83155 0.908116 7.83155 0.908117 7.83155 0.908119C7.99262 1.21653 8.24983 1.46403 8.5642 1.61312L9.1714 1.90107C9.31101 1.96728 9.4 2.10798 9.4 2.26249Z" stroke="#EAF3FC" stroke-width="1.2" stroke-linejoin="round"/>
<path d="M7.1 4.5C7.1 4.99635 6.87097 5.52549 6.47916 5.93376C6.08956 6.33974 5.56443 6.6 5 6.6C4.43557 6.6 3.91044 6.33974 3.52084 5.93376C3.12903 5.52549 2.9 4.99635 2.9 4.5C2.9 4.25543 2.95494 4.08581 3.03364 3.96251C3.11281 3.83847 3.23346 3.73401 3.40807 3.64855C3.77342 3.46974 4.31971 3.4 5 3.4C5.68029 3.4 6.22658 3.46974 6.59193 3.64855C6.76654 3.73401 6.88719 3.83847 6.96636 3.96251C7.04506 4.08581 7.1 4.25543 7.1 4.5Z" stroke="#EAF3FC" stroke-width="0.8"/>
<path d="M1 9.67112C2.14606 8.89344 3.31681 8 5 8C6.68347 8 7.85433 8.89343 9.00057 9.67112" stroke="#EAF3FC" stroke-width="0.8"/>
</svg>
