<svg width="83" height="106" viewBox="0 0 83 106" fill="none" xmlns="http://www.w3.org/2000/svg">
<path d="M81 105.35H2C1.25442 105.35 0.65 104.746 0.65 104V2C0.65 1.25441 1.25441 0.65 2 0.65H57.1716C57.5296 0.65 57.873 0.792232 58.1262 1.04541L58.5858 0.585786L58.1262 1.04541L81.9546 24.8738C82.2078 25.127 82.35 25.4704 82.35 25.8284V104C82.35 104.746 81.7456 105.35 81 105.35Z" stroke="#0099FF" stroke-width="1.3" stroke-linejoin="round"/>
<path d="M23.848 44.6H25.938V60H23.848V44.6ZM29.4073 44.6H31.3433L36.6893 54.478L41.9033 44.6H43.8393V60H41.7933V48.516L37.7453 56.084C37.5693 56.4067 37.4006 56.634 37.2393 56.766C37.0926 56.898 36.9166 56.964 36.7113 56.964H36.1173L31.4753 48.516V60H29.4073V44.6ZM51.9069 60.176C50.8656 60.176 49.9416 59.9413 49.1349 59.472C48.3429 59.0027 47.7269 58.3427 47.2869 57.492C46.8616 56.6267 46.6489 55.6293 46.6489 54.5V50.1C46.6489 48.9707 46.8689 47.9807 47.3089 47.13C47.7636 46.2647 48.3943 45.5973 49.2009 45.128C50.0076 44.6587 50.9389 44.424 51.9949 44.424H54.3709C55.3829 44.424 56.2776 44.6367 57.0549 45.062C57.8323 45.4727 58.4336 46.0667 58.8589 46.844C59.2843 47.6067 59.4969 48.4867 59.4969 49.484H57.4509C57.4509 48.5307 57.1649 47.7607 56.5929 47.174C56.0356 46.5873 55.2949 46.294 54.3709 46.294H51.9949C51.0269 46.294 50.2423 46.646 49.6409 47.35C49.0396 48.054 48.7389 48.9853 48.7389 50.144V54.456C48.7389 55.6147 49.0249 56.546 49.5969 57.25C50.1836 57.954 50.9536 58.306 51.9069 58.306H54.3709C55.3096 58.306 56.0723 57.976 56.6589 57.316C57.2603 56.656 57.5609 55.8053 57.5609 54.764V53.708H53.2929V51.882H59.6069V54.764C59.6069 55.82 59.3869 56.7587 58.9469 57.58C58.5069 58.4013 57.8909 59.0393 57.0989 59.494C56.3069 59.9487 55.3976 60.176 54.3709 60.176H51.9069Z" fill="#0099FF"/>
<path d="M57 1V24C57 25.1046 57.8954 26 59 26H82" stroke="#0099FF" stroke-width="1.3"/>
</svg>
