<svg width="29" height="29" viewBox="0 0 29 29" fill="none" xmlns="http://www.w3.org/2000/svg">
<path d="M9.15 11.3C9.15 8.14934 11.5748 5.65 14.5 5.65C17.4252 5.65 19.85 8.14934 19.85 11.3C19.85 11.837 19.7792 12.3555 19.6474 12.846L14.5 21.7061L9.35265 12.846C9.22081 12.3555 9.15 11.837 9.15 11.3Z" stroke="#7C8BD4" stroke-width="1.3"/>
<circle cx="14.5" cy="11" r="2.1" stroke="#7C8BD4" stroke-width="0.8"/>
<path d="M12.7668 19.5C10.2981 19.8166 8.5 20.7918 8.5 21.9459C8.5 23.3565 11.1863 24.5 14.5 24.5C17.8137 24.5 20.5 23.3565 20.5 21.9459C20.5 20.7918 18.7019 19.8166 16.2332 19.5" stroke="#7C8BD4" stroke-width="0.8"/>
<circle cx="14.5" cy="14.5" r="13.95" stroke="#7C8BD4" stroke-width="1.1"/>
</svg>
