<svg width="13" height="17" viewBox="0 0 13 17" fill="none" xmlns="http://www.w3.org/2000/svg">
<path d="M9.51399 2.19189L1.29896 12.8335C1.23558 12.9156 1.20389 12.9566 1.17682 13.0003C1.14136 13.0576 1.11177 13.1182 1.0885 13.1814C1.07073 13.2297 1.0579 13.2799 1.03222 13.3804L1.03222 13.3804C0.791709 14.3217 0.671453 14.7923 0.770354 15.0767C0.899755 15.4488 1.23552 15.7102 1.62795 15.7444C1.92787 15.7706 2.35642 15.5377 3.21351 15.0718L3.21351 15.0718L3.21352 15.0718C3.30737 15.0208 3.3543 14.9953 3.39774 14.9654C3.45399 14.9266 3.50612 14.8822 3.55331 14.8328C3.58976 14.7947 3.62229 14.7526 3.68734 14.6683L11.898 4.03231C12.1861 3.6591 12.3302 3.4725 12.382 3.27795C12.4493 3.02475 12.4147 2.75522 12.2854 2.52733C12.186 2.35223 11.9994 2.20818 11.6262 1.92008C11.253 1.63197 11.0664 1.48792 10.8719 1.43615C10.6187 1.36877 10.3491 1.40345 10.1212 1.53274C9.94614 1.63208 9.80209 1.81868 9.51399 2.19189Z" stroke="#0A1551" stroke-width="1.1" stroke-linecap="round"/>
</svg>
